<svg version="1.1" id="Layer_1" xmlns="http://www.w3.org/2000/svg" xmlns:xlink="http://www.w3.org/1999/xlink" x="0px" y="0px"
width="250px" height="100%" viewBox="0 0 250 250" enable-background="new 0 0 250 250" xml:space="preserve">
<g>
<g>
<path d="M175.691,59.425c-14.863-9.875-34.391-8.483-53.914-10.588C102.254,46.72,82.731,62.971,67.87,82.82
c-14.858,19.812-22.287,21.444-22.287,42.724c0,17.753,7.429,55.154,22.287,65.056c14.861,9.873,34.386,8.482,53.911,10.588
c19.522,2.117,39.048-14.135,53.911-33.982c14.857-19.812,22.286-21.445,22.286-42.724
C197.978,106.728,190.549,69.328,175.691,59.425z"/>
</g>
<g>
<path fill="#202020" d="M194.191,93.222c-0.28-0.352-0.564-0.709-0.85-1.063c-0.706-2.627-1.49-5.207-2.348-7.695
c-3.658-11.051-8.746-21.32-15.264-25.051c-0.103-0.082-0.206-0.158-0.311-0.237c-2.896-2.372-6.031-4.082-9.386-5.086
c-2.704-0.925-5.551-1.397-8.525-1.718c-2.285-0.375-4.617-0.684-6.987-1.019c-0.503-0.055-1.007-0.111-1.515-0.169
c-0.862-0.501-1.729-1-2.612-1.488c-11.617-6.366-24.572-11.441-32.832-9.195c-9.393,1.117-16.117,6.55-23.523,12.127
c-0.392,0.314-0.793,0.631-1.187,0.946c-0.967,0.258-1.934,0.521-2.901,0.799c-12.718,3.715-25.466,9.286-29.718,16.715
c-5.852,7.431-6.766,16.028-8.06,25.209c-0.055,0.499-0.111,1-0.167,1.505c-0.502,0.866-1,1.737-1.49,2.62
c-6.365,11.619-11.44,24.574-9.195,32.833c1.116,9.393,6.551,16.119,12.127,23.523c0.281,0.354,0.564,0.709,0.848,1.062
c0.708,2.629,1.493,5.209,2.35,7.697c3.659,11.049,8.745,21.316,15.263,25.051c0.104,0.08,0.213,0.158,0.317,0.24
c2.895,2.369,6.027,4.076,9.379,5.08c2.704,0.926,5.55,1.396,8.525,1.717c2.282,0.375,4.614,0.686,6.985,1.02
c0.503,0.055,1.008,0.111,1.515,0.168c0.863,0.502,1.731,1,2.612,1.488c11.619,6.367,24.573,11.441,32.834,9.195
c9.394-1.115,16.116-6.551,23.52-12.127c0.395-0.312,0.795-0.629,1.192-0.945c0.965-0.256,1.933-0.521,2.899-0.801
c12.718-3.713,25.467-9.283,29.718-16.715c5.853-7.432,6.766-16.027,8.06-25.205c0.053-0.5,0.111-1.002,0.168-1.506
c0.503-0.865,1.002-1.74,1.488-2.621c6.366-11.621,11.443-24.574,9.195-32.833C205.201,107.352,199.768,100.626,194.191,93.222z"
/>
<path fill="#202020" d="M207.568,116.503c-1.119-9.166-6.132-15.798-11.437-22.819l-0.948-1.257l-0.682-0.854
c-0.709-2.604-1.482-5.13-2.302-7.509c-4.511-13.617-9.818-22.27-15.741-25.693l-0.233-0.178c-3.04-2.487-6.336-4.274-9.781-5.304
c-2.449-0.837-5.156-1.385-8.757-1.773c-1.79-0.293-3.57-0.542-5.45-0.803l-1.578-0.221l-1.243-0.138
c-0.935-0.542-1.685-0.968-2.41-1.369c-8.237-4.514-19.954-9.893-29.011-9.893c-1.696,0-3.268,0.19-4.673,0.561
C104.156,40.37,97.522,45.383,90.5,50.69l-1.256,0.948l-0.977,0.778c-0.888,0.238-1.777,0.483-2.673,0.74
C74.378,56.432,60,62.078,55.178,70.377c-5.692,7.272-6.837,15.507-8.05,24.226L46.91,96.16l-0.138,1.238
c-0.461,0.797-0.918,1.6-1.369,2.415c-5.616,10.249-11.79,24.407-9.332,33.685c1.118,9.166,6.13,15.799,11.439,22.822l0.949,1.256
l0.68,0.854c0.709,2.609,1.483,5.137,2.302,7.508c4.506,13.615,9.814,22.268,15.738,25.691l0.245,0.186
c3.038,2.484,6.33,4.268,9.771,5.299c2.446,0.836,5.153,1.383,8.755,1.771c1.792,0.295,3.57,0.541,5.491,0.811l1.536,0.213
l1.246,0.141c0.935,0.541,1.684,0.969,2.408,1.369c8.235,4.512,19.955,9.891,29.01,9.891h0.004c1.694,0,3.266-0.188,4.671-0.561
c9.164-1.117,15.797-6.129,22.821-11.438l1.252-0.947l0.977-0.779c0.892-0.238,1.781-0.482,2.677-0.74
c11.218-3.275,25.594-8.922,30.416-17.217c5.691-7.271,6.836-15.508,8.05-24.225l0.219-1.562c0.043-0.408,0.09-0.82,0.137-1.234
c0.463-0.797,0.919-1.602,1.369-2.416C203.854,139.939,210.026,125.779,207.568,116.503z M197.63,149.854
c-0.462,0.834-0.929,1.654-1.401,2.469l-0.036,0.062l-0.009,0.072c-0.048,0.438-0.098,0.875-0.145,1.299l-0.213,1.551
c-1.203,8.629-2.336,16.779-7.925,23.908l-0.029,0.041c-4.694,8.111-18.919,13.68-30.021,16.922
c-0.913,0.264-1.821,0.514-2.73,0.756l-0.069,0.018l-1.085,0.865l-1.245,0.943c-6.953,5.254-13.52,10.215-22.512,11.305
l-0.047,0.008c-1.353,0.363-2.873,0.545-4.516,0.545v0.346l-0.004-0.346c-8.91,0-20.512-5.334-28.676-9.807
c-0.736-0.408-1.499-0.842-2.458-1.398l-0.062-0.037l-1.382-0.154l-1.566-0.219c-1.876-0.262-3.65-0.508-5.455-0.803
c-3.567-0.387-6.226-0.922-8.636-1.748c-3.367-1.006-6.577-2.746-9.555-5.182l-0.285-0.213
c-5.812-3.365-11.016-11.889-15.469-25.342c-0.821-2.379-1.599-4.918-2.309-7.539l-0.018-0.068l-0.766-0.955l-0.943-1.25
c-5.253-6.953-10.217-13.52-11.306-22.512l-0.009-0.045c-2.415-9.058,3.705-23.054,9.262-33.199
c0.461-0.831,0.929-1.65,1.401-2.465l0.036-0.063l0.152-1.373l0.215-1.546c1.201-8.631,2.334-16.784,7.924-23.916l0.027-0.038
c4.698-8.114,18.92-13.682,30.023-16.925c0.913-0.262,1.821-0.511,2.729-0.753l0.069-0.019l1.083-0.863l1.249-0.943
c6.953-5.253,13.519-10.216,22.512-11.306l0.048-0.011c1.353-0.36,2.872-0.543,4.518-0.543c8.908,0,20.513,5.333,28.676,9.808
c0.738,0.407,1.501,0.84,2.46,1.398l0.062,0.037l1.38,0.153l1.571,0.219c1.876,0.262,3.647,0.509,5.45,0.804
c3.567,0.385,6.228,0.923,8.638,1.747c3.371,1.008,6.583,2.752,9.565,5.19l0.276,0.208c5.812,3.36,11.014,11.885,15.47,25.341
c0.821,2.389,1.6,4.924,2.308,7.537l0.018,0.069l0.768,0.959l0.943,1.249c5.252,6.952,10.214,13.517,11.303,22.509l0.011,0.049
C209.306,125.712,203.187,139.709,197.63,149.854z"/>
</g>
<g>
<path fill="#FFFFFF" d="M60.179,119.721c0.176-0.083,0.325-0.192,0.443-0.323c0.119-0.131,0.212-0.269,0.282-0.414
c0.068-0.146,0.119-0.26,0.15-0.345l0.246-0.686c0.097-0.265,0.214-0.486,0.349-0.664c0.136-0.178,0.331-0.254,0.589-0.224
c0.147,0.017,0.271,0.066,0.374,0.149c0.103,0.082,0.181,0.183,0.239,0.306c0.056,0.122,0.094,0.258,0.11,0.408
c0.016,0.151,0.016,0.3-0.001,0.447c-0.035,0.309-0.134,0.567-0.299,0.775c-0.165,0.208-0.373,0.373-0.625,0.493l0.358,0.676
c0.395-0.202,0.686-0.463,0.875-0.787c0.191-0.325,0.308-0.686,0.354-1.082c0.027-0.25,0.026-0.499-0.005-0.748
c-0.03-0.249-0.1-0.475-0.208-0.677c-0.106-0.201-0.255-0.37-0.443-0.507c-0.19-0.137-0.422-0.22-0.703-0.252
c-0.366-0.041-0.687,0.042-0.961,0.253c-0.272,0.21-0.469,0.492-0.591,0.842l-0.26,0.718c-0.117,0.329-0.243,0.571-0.373,0.729
c-0.128,0.156-0.314,0.22-0.557,0.192c-0.14-0.016-0.255-0.061-0.343-0.133c-0.088-0.073-0.157-0.166-0.209-0.276
s-0.083-0.229-0.099-0.363c-0.013-0.13-0.013-0.261,0-0.384c0.03-0.264,0.118-0.48,0.264-0.65c0.146-0.17,0.333-0.297,0.558-0.383
l-0.356-0.697c-0.357,0.129-0.623,0.34-0.797,0.634c-0.175,0.292-0.282,0.618-0.323,0.977c-0.028,0.243-0.023,0.482,0.013,0.716
c0.037,0.236,0.108,0.449,0.213,0.644c0.102,0.194,0.248,0.356,0.435,0.485c0.186,0.128,0.411,0.208,0.675,0.238
C59.792,119.834,60,119.807,60.179,119.721z"/>

<rect x="59.416" y="111.278" transform="matrix(-0.9754 -0.2204 0.2204 -0.9754 97.8894 234.2081)" fill="#FFFFFF" width="5.189" height="0.731"/>
<path fill="#FFFFFF" d="M57.65,110.113c-0.151-0.035-0.288-0.009-0.408,0.077c-0.123,0.086-0.199,0.194-0.228,0.325
c-0.029,0.129-0.009,0.259,0.064,0.388c0.074,0.131,0.187,0.213,0.339,0.248c0.149,0.034,0.286,0.007,0.406-0.078
c0.124-0.085,0.199-0.195,0.228-0.324c0.029-0.129,0.007-0.259-0.066-0.39C57.915,110.229,57.801,110.146,57.65,110.113z"/>
<path fill="#FFFFFF" d="M62.225,106.431c0.26,0.237,0.567,0.418,0.921,0.548c0.354,0.129,0.706,0.183,1.062,0.163
c0.354-0.021,0.681-0.104,0.983-0.254c0.302-0.15,0.573-0.356,0.811-0.621c0.237-0.263,0.422-0.57,0.551-0.925
c0.128-0.354,0.182-0.716,0.16-1.087c-0.023-0.37-0.16-0.726-0.412-1.069l0.007-0.021l0.874,0.319
c0.264,0.097,0.501,0.22,0.71,0.371c0.208,0.152,0.372,0.333,0.492,0.545c0.119,0.213,0.184,0.458,0.196,0.739
c0.012,0.28-0.045,0.592-0.173,0.941c-0.144,0.395-0.357,0.725-0.638,0.987c-0.282,0.264-0.593,0.447-0.938,0.55l0.355,0.707
c0.447-0.191,0.819-0.448,1.119-0.771c0.298-0.323,0.537-0.728,0.714-1.214c0.2-0.549,0.279-1.023,0.236-1.425
c-0.043-0.401-0.155-0.741-0.334-1.024c-0.179-0.282-0.407-0.51-0.681-0.685c-0.275-0.174-0.545-0.311-0.807-0.407l-4.833-1.763
l-0.25,0.688l0.813,0.295l-0.009,0.021c-0.237,0.07-0.446,0.163-0.627,0.278c-0.179,0.116-0.334,0.243-0.463,0.381
c-0.128,0.136-0.237,0.282-0.323,0.435c-0.088,0.153-0.157,0.302-0.211,0.449c-0.131,0.36-0.188,0.715-0.17,1.064
c0.018,0.35,0.103,0.675,0.251,0.977C61.761,105.925,61.966,106.194,62.225,106.431z M62.186,103.726
c0.105-0.284,0.248-0.521,0.431-0.715c0.186-0.192,0.391-0.337,0.619-0.434c0.23-0.098,0.472-0.148,0.727-0.149
c0.257-0.001,0.514,0.046,0.771,0.139c0.287,0.097,0.527,0.234,0.722,0.412c0.195,0.178,0.341,0.383,0.442,0.617
c0.102,0.232,0.154,0.478,0.162,0.736c0.008,0.259-0.034,0.512-0.124,0.763c-0.094,0.257-0.231,0.476-0.412,0.658
c-0.18,0.182-0.385,0.324-0.615,0.425c-0.23,0.1-0.475,0.157-0.734,0.168c-0.262,0.011-0.52-0.03-0.777-0.124
c-0.257-0.094-0.48-0.229-0.671-0.405s-0.343-0.377-0.452-0.602c-0.112-0.224-0.175-0.465-0.198-0.722
C62.056,104.238,62.092,103.984,62.186,103.726z"/>
<path fill="#FFFFFF" d="M68.5,93.55c-0.567-0.315-1.083-0.418-1.543-0.312c-0.461,0.108-0.854,0.452-1.176,1.035
c-0.083,0.149-0.146,0.311-0.188,0.485c-0.042,0.175-0.063,0.35-0.064,0.528c0,0.177,0.02,0.349,0.064,0.517
c0.042,0.167,0.104,0.32,0.188,0.459l-0.011,0.02c-0.122-0.067-0.245-0.133-0.365-0.196c-0.122-0.064-0.247-0.123-0.377-0.178
l-0.366,0.658c0.176,0.082,0.361,0.168,0.552,0.263c0.193,0.094,0.351,0.175,0.474,0.245l3.538,1.962l0.355-0.64l-2.328-1.291
c-0.412-0.229-0.699-0.473-0.86-0.731c-0.162-0.258-0.255-0.502-0.278-0.732c-0.026-0.229-0.01-0.425,0.047-0.589
c0.057-0.162,0.094-0.26,0.112-0.292c0.261-0.472,0.575-0.721,0.941-0.748c0.365-0.025,0.798,0.102,1.302,0.382l2.511,1.393
l0.355-0.64L68.5,93.55z"/>
<path fill="#FFFFFF" d="M70.764,89.381c0.183,0.309,0.427,0.582,0.738,0.822c0.311,0.24,0.638,0.406,0.984,0.5
c0.347,0.096,0.689,0.125,1.026,0.086c0.337-0.039,0.661-0.147,0.971-0.322c0.308-0.177,0.581-0.418,0.816-0.722
c0.261-0.34,0.439-0.71,0.532-1.109c0.095-0.398,0.08-0.842-0.04-1.326l-0.713,0.162c0.097,0.261,0.13,0.56,0.099,0.896
c-0.03,0.336-0.166,0.658-0.404,0.968c-0.158,0.206-0.345,0.366-0.555,0.483c-0.211,0.117-0.436,0.191-0.67,0.225
c-0.235,0.033-0.476,0.021-0.721-0.04c-0.244-0.056-0.476-0.155-0.694-0.296l2.643-3.421l-0.264-0.205
c-0.28-0.216-0.579-0.377-0.896-0.481c-0.317-0.104-0.632-0.144-0.945-0.12c-0.312,0.025-0.619,0.117-0.921,0.277
c-0.299,0.16-0.571,0.394-0.809,0.705c-0.226,0.292-0.383,0.605-0.467,0.941c-0.088,0.336-0.104,0.672-0.058,1.008
C70.468,88.75,70.583,89.072,70.764,89.381z M71.158,87.501c0.062-0.233,0.165-0.442,0.311-0.63
c0.325-0.421,0.699-0.655,1.124-0.701c0.422-0.047,0.83,0.081,1.221,0.384l-2.141,2.772c-0.169-0.131-0.302-0.297-0.399-0.498
c-0.097-0.201-0.157-0.415-0.177-0.641C71.075,87.962,71.095,87.733,71.158,87.501z"/>
<path fill="#FFFFFF" d="M77.221,83.24c0.271,0.284,0.568,0.501,0.896,0.647c0.329,0.147,0.665,0.227,1.009,0.235
c0.345,0.009,0.685-0.052,1.024-0.184c0.338-0.132,0.655-0.339,0.951-0.618c0.123-0.117,0.241-0.254,0.353-0.411
c0.111-0.156,0.203-0.324,0.276-0.506c0.073-0.18,0.125-0.373,0.157-0.575c0.031-0.203,0.029-0.411-0.008-0.62l0.017-0.016
l0.596,0.627l0.53-0.501l-5.763-6.085l-0.532,0.503l2.792,2.945l-0.017,0.016c-0.207-0.047-0.414-0.061-0.617-0.041
c-0.206,0.021-0.4,0.063-0.584,0.125c-0.186,0.063-0.358,0.145-0.52,0.248c-0.163,0.104-0.306,0.213-0.43,0.33
c-0.296,0.28-0.518,0.585-0.669,0.915c-0.149,0.33-0.229,0.668-0.239,1.013c-0.007,0.344,0.053,0.685,0.181,1.021
S76.952,82.957,77.221,83.24z M77.328,80.521c0.1-0.242,0.261-0.469,0.482-0.677c0.213-0.203,0.45-0.354,0.709-0.451
c0.259-0.098,0.519-0.143,0.78-0.136c0.262,0.007,0.515,0.067,0.763,0.177c0.248,0.112,0.471,0.271,0.67,0.48
c0.198,0.21,0.346,0.441,0.443,0.695c0.097,0.254,0.144,0.511,0.136,0.772c-0.006,0.261-0.067,0.518-0.178,0.771
c-0.11,0.253-0.274,0.482-0.489,0.685c-0.218,0.208-0.455,0.357-0.701,0.443c-0.25,0.088-0.498,0.122-0.75,0.104
c-0.249-0.016-0.494-0.085-0.735-0.203c-0.239-0.119-0.459-0.283-0.657-0.493c-0.198-0.208-0.349-0.436-0.457-0.682
c-0.105-0.246-0.161-0.495-0.164-0.747C77.178,81.012,77.227,80.765,77.328,80.521z"/>
<path fill="#FFFFFF" d="M89.399,72.854c0.174,0.094,0.348,0.149,0.524,0.168c0.176,0.019,0.343,0.013,0.5-0.017
c0.157-0.03,0.28-0.058,0.369-0.082l0.699-0.206c0.27-0.078,0.519-0.114,0.742-0.109c0.223,0.006,0.398,0.12,0.526,0.345
c0.073,0.129,0.107,0.259,0.101,0.39c-0.007,0.131-0.043,0.255-0.107,0.373c-0.065,0.118-0.153,0.228-0.265,0.33
c-0.113,0.101-0.233,0.189-0.361,0.261c-0.271,0.155-0.537,0.226-0.804,0.214c-0.266-0.009-0.52-0.083-0.766-0.215l-0.336,0.688
c0.395,0.202,0.778,0.283,1.153,0.244c0.374-0.038,0.733-0.155,1.08-0.353c0.219-0.123,0.42-0.272,0.602-0.443
c0.184-0.172,0.326-0.361,0.425-0.566c0.1-0.205,0.149-0.424,0.149-0.658c-0.001-0.233-0.071-0.473-0.209-0.716
c-0.183-0.321-0.44-0.53-0.771-0.627c-0.331-0.097-0.674-0.092-1.028,0.017l-0.735,0.212c-0.336,0.097-0.604,0.139-0.807,0.127
c-0.204-0.014-0.364-0.125-0.484-0.337c-0.07-0.123-0.101-0.241-0.093-0.355c0.008-0.114,0.041-0.225,0.1-0.33
c0.059-0.106,0.137-0.203,0.234-0.293c0.099-0.089,0.203-0.165,0.312-0.228c0.231-0.131,0.459-0.188,0.682-0.169
c0.223,0.017,0.435,0.092,0.637,0.224l0.354-0.7c-0.314-0.21-0.643-0.3-0.981-0.27c-0.341,0.031-0.668,0.135-0.982,0.314
c-0.211,0.121-0.402,0.265-0.571,0.432c-0.167,0.167-0.298,0.352-0.394,0.551c-0.097,0.198-0.142,0.41-0.137,0.638
c0.006,0.225,0.075,0.455,0.206,0.685C89.081,72.606,89.228,72.759,89.399,72.854z"/>
<path fill="#FFFFFF" d="M96.876,70.772c0.248,0.259,0.527,0.458,0.837,0.597c0.311,0.14,0.645,0.212,1,0.22
c0.354,0.005,0.711-0.064,1.069-0.205c0.398-0.158,0.739-0.384,1.025-0.679c0.283-0.296,0.497-0.683,0.642-1.162l-0.697-0.225
c-0.05,0.274-0.174,0.548-0.372,0.822c-0.197,0.272-0.478,0.48-0.843,0.625c-0.24,0.096-0.481,0.139-0.723,0.13
c-0.241-0.006-0.471-0.058-0.691-0.148c-0.218-0.092-0.419-0.226-0.6-0.4c-0.181-0.174-0.329-0.379-0.445-0.61l4.021-1.593
l-0.124-0.309c-0.131-0.33-0.305-0.621-0.523-0.873c-0.219-0.25-0.469-0.445-0.751-0.583c-0.281-0.14-0.592-0.217-0.932-0.234
c-0.34-0.015-0.694,0.048-1.058,0.193c-0.342,0.135-0.637,0.325-0.882,0.569c-0.245,0.243-0.433,0.523-0.563,0.836
c-0.13,0.314-0.196,0.65-0.197,1.007c0,0.359,0.071,0.72,0.215,1.084C96.429,70.201,96.625,70.513,96.876,70.772z M96.966,67.898
c0.097-0.206,0.232-0.392,0.405-0.56c0.17-0.167,0.367-0.294,0.587-0.381c0.494-0.197,0.936-0.206,1.324-0.03
c0.388,0.176,0.673,0.495,0.855,0.955l-3.257,1.291c-0.08-0.2-0.108-0.41-0.09-0.633C96.81,68.317,96.867,68.104,96.966,67.898z"
/>
<path fill="#FFFFFF" d="M106.576,64.261c0.864-0.201,1.398,0.133,1.601,1.004l0.03,0.128l-0.356,0.084
c-0.302,0.07-0.631,0.162-0.989,0.276c-0.356,0.114-0.681,0.265-0.975,0.455c-0.293,0.19-0.519,0.426-0.677,0.709
c-0.158,0.284-0.189,0.63-0.094,1.041c0.058,0.246,0.157,0.447,0.296,0.608c0.14,0.162,0.305,0.286,0.496,0.374
c0.192,0.088,0.398,0.139,0.623,0.152c0.221,0.013,0.444-0.007,0.667-0.06c0.411-0.097,0.742-0.251,0.991-0.464
c0.249-0.214,0.44-0.515,0.57-0.901l0.021-0.005c0.032,0.136,0.069,0.276,0.115,0.417c0.043,0.142,0.09,0.271,0.14,0.389
l0.692-0.163c-0.054-0.13-0.114-0.299-0.182-0.509c-0.068-0.207-0.122-0.41-0.167-0.604l-0.526-2.255
c-0.073-0.31-0.185-0.566-0.338-0.765c-0.153-0.199-0.329-0.354-0.53-0.462c-0.199-0.109-0.422-0.172-0.665-0.192
c-0.243-0.02-0.487,0-0.731,0.057c-0.95,0.222-1.607,0.632-1.967,1.232l0.55,0.407C105.518,64.716,105.985,64.397,106.576,64.261z
M108.342,65.978l0.086,0.367c0.052,0.224,0.07,0.441,0.054,0.653c-0.015,0.211-0.07,0.407-0.165,0.584
c-0.096,0.179-0.228,0.333-0.398,0.463c-0.17,0.131-0.386,0.227-0.645,0.287c-0.145,0.035-0.291,0.05-0.438,0.051
c-0.149,0-0.288-0.024-0.421-0.073c-0.133-0.049-0.248-0.125-0.344-0.227c-0.095-0.103-0.163-0.238-0.202-0.402
c-0.058-0.252-0.017-0.472,0.126-0.657c0.142-0.184,0.329-0.339,0.562-0.466c0.232-0.126,0.481-0.231,0.746-0.311
c0.267-0.081,0.489-0.142,0.669-0.184L108.342,65.978z"/>

<rect x="109.781" y="63.096" transform="matrix(0.11 0.9939 -0.9939 0.11 164.5168 -56.7953)" fill="#FFFFFF" width="8.38" height="0.732"/>
<path fill="#FFFFFF" d="M119.658,66.618c0.233,0.246,0.515,0.439,0.842,0.579c0.327,0.141,0.683,0.213,1.067,0.217
c0.428,0.004,0.831-0.076,1.204-0.242c0.375-0.167,0.72-0.443,1.036-0.832l-0.561-0.472c-0.15,0.236-0.368,0.441-0.655,0.62
c-0.287,0.178-0.625,0.265-1.017,0.261c-0.259-0.004-0.5-0.053-0.719-0.153c-0.221-0.098-0.415-0.231-0.583-0.399
c-0.169-0.169-0.304-0.368-0.405-0.598c-0.1-0.23-0.161-0.474-0.179-0.734l4.323,0.047l0.004-0.333
c0.004-0.354-0.049-0.69-0.158-1.004c-0.107-0.315-0.265-0.59-0.471-0.827c-0.208-0.233-0.467-0.422-0.777-0.566
c-0.31-0.145-0.66-0.218-1.052-0.222c-0.37-0.004-0.713,0.062-1.033,0.194c-0.319,0.133-0.598,0.321-0.837,0.562
c-0.238,0.241-0.428,0.528-0.564,0.858c-0.135,0.331-0.205,0.692-0.211,1.084c-0.002,0.393,0.062,0.754,0.194,1.088
C119.239,66.081,119.423,66.372,119.658,66.618z M119.871,63.648c0.103-0.197,0.237-0.375,0.405-0.527
c0.168-0.153,0.364-0.275,0.585-0.365c0.224-0.089,0.454-0.133,0.689-0.131c0.534,0.005,0.945,0.163,1.238,0.473
c0.292,0.31,0.437,0.713,0.43,1.208l-3.504-0.037C119.718,64.053,119.77,63.848,119.871,63.648z"/>
<path fill="#FFFFFF" d="M128.361,67.075c0.198,0.28,0.453,0.516,0.765,0.706c0.308,0.19,0.662,0.318,1.063,0.385
c0.169,0.028,0.35,0.039,0.541,0.033c0.192-0.005,0.382-0.034,0.57-0.084c0.188-0.052,0.372-0.125,0.554-0.222
c0.182-0.098,0.345-0.224,0.491-0.379l0.021,0.003l-0.143,0.853l0.723,0.121l1.374-8.268l-0.723-0.119l-0.665,4.001l-0.021-0.004
c-0.088-0.195-0.2-0.366-0.341-0.518c-0.14-0.151-0.292-0.279-0.451-0.389c-0.164-0.11-0.335-0.198-0.514-0.266
c-0.18-0.067-0.353-0.115-0.522-0.142c-0.4-0.068-0.778-0.061-1.132,0.02c-0.354,0.079-0.67,0.219-0.95,0.42
c-0.28,0.199-0.516,0.453-0.707,0.759c-0.188,0.307-0.317,0.652-0.379,1.038c-0.066,0.386-0.057,0.756,0.023,1.105
C128.019,66.479,128.161,66.794,128.361,67.075z M128.702,65.154c0.046-0.285,0.136-0.543,0.271-0.775
c0.133-0.234,0.296-0.428,0.496-0.582c0.197-0.155,0.424-0.266,0.678-0.331c0.253-0.066,0.531-0.075,0.829-0.025
c0.292,0.048,0.557,0.146,0.79,0.294c0.233,0.148,0.427,0.328,0.578,0.54c0.152,0.212,0.259,0.451,0.319,0.716
s0.068,0.541,0.02,0.824c-0.047,0.284-0.143,0.542-0.286,0.772c-0.143,0.232-0.321,0.424-0.533,0.575
c-0.21,0.152-0.452,0.26-0.723,0.324c-0.269,0.064-0.549,0.071-0.841,0.023c-0.298-0.049-0.559-0.146-0.776-0.292
c-0.22-0.145-0.397-0.324-0.538-0.533c-0.135-0.21-0.229-0.447-0.28-0.71C128.655,65.711,128.655,65.438,128.702,65.154z"/>
<path fill="#FFFFFF" d="M143.564,71.821c0.25,0.264,0.559,0.479,0.929,0.647c0.155,0.07,0.325,0.127,0.512,0.172
c0.188,0.043,0.378,0.066,0.572,0.066c0.199-0.001,0.394-0.025,0.594-0.073c0.2-0.047,0.391-0.126,0.572-0.239l0.02,0.009
l-0.358,0.788l0.668,0.302l3.465-7.63l-0.666-0.303l-1.678,3.695l-0.02-0.01c-0.035-0.209-0.102-0.407-0.196-0.588
c-0.096-0.182-0.209-0.345-0.338-0.494c-0.126-0.146-0.268-0.276-0.424-0.388c-0.157-0.112-0.312-0.202-0.467-0.273
c-0.37-0.167-0.735-0.259-1.098-0.273c-0.364-0.014-0.709,0.04-1.032,0.16c-0.323,0.122-0.612,0.305-0.875,0.551
c-0.264,0.246-0.476,0.548-0.635,0.905c-0.164,0.356-0.249,0.713-0.265,1.074c-0.012,0.358,0.041,0.701,0.163,1.022
C143.129,71.264,143.313,71.557,143.564,71.821z M143.833,69.175c0.121-0.264,0.274-0.49,0.463-0.68
c0.188-0.191,0.397-0.335,0.627-0.433c0.234-0.098,0.479-0.146,0.744-0.145c0.261,0.002,0.529,0.065,0.806,0.192
c0.271,0.121,0.498,0.283,0.688,0.487c0.188,0.203,0.326,0.427,0.418,0.67c0.092,0.245,0.132,0.504,0.124,0.775
c-0.011,0.271-0.073,0.54-0.194,0.801c-0.118,0.263-0.276,0.485-0.475,0.672c-0.198,0.185-0.421,0.325-0.666,0.417
c-0.243,0.092-0.504,0.135-0.782,0.126c-0.274-0.009-0.549-0.074-0.817-0.195c-0.276-0.126-0.5-0.288-0.676-0.484
c-0.173-0.196-0.301-0.415-0.379-0.654c-0.078-0.237-0.105-0.49-0.086-0.757C143.646,69.701,143.716,69.437,143.833,69.175z"/>
<path fill="#FFFFFF" d="M151.841,76.194c0.198,0.294,0.459,0.547,0.78,0.758c0.356,0.237,0.737,0.386,1.145,0.45
c0.405,0.063,0.845,0.017,1.32-0.14l-0.216-0.699c-0.254,0.115-0.55,0.17-0.887,0.166c-0.337-0.006-0.669-0.116-0.996-0.331
c-0.216-0.143-0.39-0.315-0.523-0.518c-0.133-0.201-0.222-0.42-0.273-0.652c-0.05-0.231-0.056-0.472-0.015-0.721
c0.038-0.249,0.12-0.487,0.245-0.713l3.608,2.378l0.183-0.277c0.194-0.296,0.335-0.605,0.413-0.929
c0.082-0.323,0.097-0.64,0.049-0.95c-0.047-0.311-0.161-0.61-0.343-0.898c-0.184-0.287-0.438-0.539-0.766-0.755
c-0.307-0.203-0.633-0.335-0.972-0.396c-0.34-0.06-0.679-0.054-1.009,0.02c-0.331,0.074-0.645,0.212-0.938,0.417
c-0.296,0.204-0.549,0.47-0.765,0.797c-0.214,0.328-0.358,0.667-0.427,1.021c-0.069,0.353-0.071,0.695-0.01,1.029
C151.51,75.584,151.643,75.898,151.841,76.194z M153.235,72.871c0.194-0.112,0.399-0.188,0.626-0.225
c0.222-0.039,0.453-0.035,0.689,0.01c0.237,0.045,0.453,0.132,0.65,0.263c0.442,0.293,0.704,0.648,0.783,1.067
c0.079,0.418-0.021,0.835-0.291,1.248l-2.926-1.928C152.887,73.128,153.042,72.983,153.235,72.871z"/>

<rect x="160.538" y="73.591" transform="matrix(0.7618 0.6478 -0.6478 0.7618 88.7042 -85.7036)" fill="#FFFFFF" width="0.732" height="8.379"/>

<rect x="161.348" y="82.423" transform="matrix(-0.7145 0.6996 -0.6996 -0.7145 338.9997 27.2429)" fill="#FFFFFF" width="5.187" height="0.731"/>
<path fill="#FFFFFF" d="M167.203,80.107c0.146,0.009,0.279-0.041,0.388-0.149c0.112-0.109,0.164-0.237,0.158-0.386
c-0.007-0.15-0.055-0.273-0.15-0.367c-0.091-0.095-0.212-0.147-0.362-0.157c-0.147-0.01-0.277,0.041-0.389,0.149
c-0.111,0.108-0.163,0.237-0.158,0.387c0.007,0.147,0.057,0.271,0.15,0.365C166.934,80.044,167.054,80.096,167.203,80.107z"/>
<polygon fill="#FFFFFF" points="172.079,88.381 171.568,87.726 167.106,89.104 167.093,89.086 169.518,85.093 168.986,84.41 
166.186,89.258 166.689,89.905 		"/>
<path fill="#FFFFFF" d="M171.203,93.701c-0.221,0.283-0.379,0.587-0.475,0.914c-0.094,0.327-0.119,0.667-0.076,1.019
c0.046,0.354,0.162,0.698,0.353,1.032c0.211,0.373,0.482,0.679,0.818,0.918c0.33,0.242,0.743,0.399,1.237,0.475l0.125-0.722
c-0.279-0.012-0.567-0.097-0.865-0.254c-0.299-0.157-0.544-0.405-0.737-0.746c-0.129-0.225-0.206-0.458-0.23-0.697
c-0.028-0.241-0.011-0.477,0.05-0.707c0.06-0.229,0.166-0.447,0.311-0.649c0.148-0.204,0.33-0.38,0.543-0.526l2.141,3.757
l0.289-0.165c0.311-0.176,0.57-0.389,0.789-0.641c0.217-0.252,0.377-0.526,0.475-0.825c0.097-0.296,0.132-0.616,0.101-0.956
c-0.033-0.34-0.146-0.679-0.338-1.019c-0.184-0.322-0.413-0.587-0.689-0.794c-0.276-0.21-0.578-0.355-0.906-0.44
c-0.331-0.085-0.672-0.104-1.027-0.054c-0.354,0.047-0.701,0.17-1.042,0.363C171.706,93.178,171.426,93.417,171.203,93.701z
M173.401,93.303c0.224-0.012,0.443,0.016,0.66,0.083c0.217,0.068,0.42,0.176,0.611,0.322c0.19,0.146,0.342,0.323,0.461,0.529
c0.262,0.462,0.333,0.897,0.216,1.306c-0.12,0.409-0.396,0.736-0.83,0.981l-1.732-3.044
C172.975,93.375,173.179,93.316,173.401,93.303z"/>
<path fill="#FFFFFF" d="M174.243,103.008l2.709-1.106c0.165-0.067,0.348-0.108,0.55-0.123c0.203-0.013,0.405,0.009,0.607,0.07
c0.207,0.06,0.395,0.163,0.567,0.307c0.179,0.143,0.316,0.345,0.426,0.605c0.067,0.172,0.104,0.308,0.106,0.41l0.722-0.138
c-0.019-0.159-0.065-0.336-0.145-0.528c-0.086-0.212-0.193-0.39-0.32-0.534c-0.126-0.144-0.262-0.259-0.41-0.346
c-0.148-0.088-0.3-0.151-0.455-0.192c-0.157-0.04-0.31-0.056-0.459-0.051l-0.009-0.021l0.893-0.363l-0.27-0.669
c-0.347,0.148-0.629,0.274-0.843,0.375c-0.217,0.099-0.429,0.192-0.641,0.277l-3.305,1.349L174.243,103.008z"/>
<path fill="#FFFFFF" d="M178.511,107.029c-0.378,0.101-0.708,0.261-0.996,0.478c-0.285,0.218-0.52,0.472-0.693,0.763
s-0.284,0.613-0.333,0.965c-0.05,0.354-0.021,0.715,0.078,1.087c0.108,0.415,0.293,0.78,0.554,1.097
c0.262,0.317,0.619,0.575,1.078,0.774l0.305-0.666c-0.268-0.081-0.523-0.236-0.771-0.466c-0.249-0.228-0.424-0.531-0.525-0.911
c-0.066-0.25-0.082-0.494-0.045-0.733c0.038-0.239,0.113-0.461,0.229-0.668c0.117-0.208,0.275-0.39,0.47-0.55
c0.194-0.158,0.413-0.282,0.658-0.37l1.109,4.179l0.323-0.086c0.342-0.092,0.65-0.23,0.927-0.418
c0.273-0.188,0.497-0.413,0.666-0.676c0.175-0.265,0.287-0.563,0.342-0.9c0.054-0.336,0.035-0.694-0.066-1.071
c-0.093-0.357-0.25-0.672-0.463-0.944c-0.215-0.272-0.47-0.491-0.766-0.656c-0.298-0.167-0.621-0.271-0.979-0.314
C179.258,106.9,178.89,106.93,178.511,107.029z M180.357,107.933c0.193,0.121,0.362,0.277,0.508,0.468
c0.146,0.191,0.251,0.399,0.312,0.628c0.137,0.514,0.094,0.954-0.126,1.318c-0.22,0.365-0.57,0.61-1.049,0.737l-0.899-3.385
c0.206-0.055,0.421-0.059,0.638-0.015C179.959,107.729,180.164,107.812,180.357,107.933z"/>
<path fill="#FFFFFF" d="M180.559,115.805c-0.392,0.041-0.744,0.145-1.062,0.315c-0.317,0.171-0.581,0.39-0.802,0.658
c-0.217,0.269-0.375,0.575-0.477,0.925c-0.103,0.347-0.133,0.724-0.09,1.129c0.018,0.169,0.055,0.345,0.109,0.528
c0.058,0.185,0.134,0.36,0.233,0.528s0.22,0.325,0.362,0.476c0.14,0.149,0.307,0.272,0.493,0.372l0.004,0.021l-0.859,0.089
l0.074,0.728l8.336-0.861l-0.075-0.727l-4.038,0.417v-0.022c0.165-0.136,0.3-0.291,0.409-0.465s0.192-0.353,0.255-0.539
c0.064-0.185,0.103-0.374,0.119-0.564c0.019-0.19,0.019-0.371,0-0.541c-0.039-0.403-0.147-0.766-0.315-1.087
c-0.173-0.32-0.392-0.588-0.658-0.806c-0.269-0.218-0.574-0.377-0.919-0.479C181.313,115.796,180.947,115.764,180.559,115.805z
M182.647,117.544c0.132,0.229,0.213,0.492,0.244,0.794c0.029,0.294,0.006,0.574-0.076,0.839
c-0.079,0.264-0.202,0.499-0.366,0.701c-0.165,0.203-0.367,0.368-0.606,0.498c-0.238,0.129-0.503,0.208-0.791,0.237
c-0.284,0.03-0.558,0.006-0.819-0.071c-0.26-0.078-0.492-0.199-0.694-0.363c-0.202-0.165-0.372-0.37-0.504-0.61
c-0.132-0.243-0.214-0.511-0.243-0.806c-0.032-0.302-0.008-0.576,0.075-0.826c0.08-0.25,0.206-0.47,0.371-0.659
c0.166-0.187,0.37-0.338,0.61-0.457c0.24-0.119,0.504-0.192,0.792-0.222c0.286-0.03,0.559-0.011,0.817,0.055
c0.262,0.066,0.49,0.174,0.693,0.324C182.349,117.128,182.517,117.316,182.647,117.544z"/>
<path fill="#FFFFFF" d="M70.428,147.734c-0.112-0.143-0.238-0.266-0.376-0.375c-0.14-0.109-0.287-0.199-0.446-0.27
c-0.158-0.07-0.317-0.113-0.479-0.133l-0.008-0.021c0.13-0.055,0.256-0.109,0.38-0.168c0.125-0.055,0.25-0.117,0.371-0.188
l-0.294-0.693c-0.17,0.088-0.353,0.18-0.546,0.273c-0.191,0.096-0.354,0.17-0.482,0.227l-3.723,1.584l0.287,0.672l2.448-1.043
c0.434-0.182,0.804-0.26,1.106-0.229c0.303,0.031,0.553,0.109,0.749,0.229c0.194,0.121,0.34,0.254,0.434,0.4
c0.095,0.145,0.15,0.232,0.163,0.268c0.212,0.496,0.215,0.898,0.011,1.201c-0.204,0.305-0.571,0.568-1.102,0.795l-2.641,1.125
l0.287,0.674l3.029-1.293c0.597-0.254,0.996-0.596,1.195-1.025c0.197-0.432,0.167-0.953-0.094-1.564
C70.63,148.025,70.542,147.877,70.428,147.734z"/>
<path fill="#FFFFFF" d="M76.285,158.201c-0.23-0.328-0.496-0.592-0.801-0.787c-0.305-0.199-0.626-0.326-0.968-0.385
c-0.338-0.061-0.684-0.051-1.035,0.025c-0.349,0.078-0.686,0.23-1.006,0.457c-0.322,0.223-0.579,0.486-0.772,0.789
c-0.194,0.305-0.321,0.623-0.382,0.967c-0.058,0.338-0.049,0.684,0.032,1.039c0.079,0.352,0.235,0.693,0.464,1.02
c0.233,0.332,0.502,0.598,0.807,0.795c0.305,0.197,0.627,0.326,0.966,0.385c0.341,0.062,0.686,0.053,1.036-0.027
c0.351-0.078,0.688-0.229,1.008-0.455c0.321-0.223,0.579-0.488,0.773-0.791c0.194-0.303,0.321-0.623,0.381-0.961
c0.061-0.342,0.048-0.688-0.032-1.043C76.673,158.877,76.516,158.531,76.285,158.201z M76.069,160.098
c-0.054,0.244-0.158,0.475-0.311,0.695c-0.153,0.223-0.347,0.412-0.583,0.576c-0.235,0.166-0.483,0.285-0.742,0.35
c-0.259,0.07-0.513,0.088-0.763,0.055c-0.247-0.033-0.485-0.115-0.71-0.252c-0.225-0.137-0.425-0.328-0.598-0.576
c-0.174-0.25-0.286-0.502-0.338-0.76c-0.049-0.26-0.045-0.51,0.011-0.752c0.056-0.24,0.16-0.473,0.314-0.693
c0.151-0.217,0.347-0.41,0.582-0.574c0.237-0.168,0.483-0.283,0.743-0.35c0.259-0.072,0.512-0.09,0.759-0.061
c0.247,0.031,0.483,0.113,0.708,0.25c0.227,0.137,0.425,0.328,0.599,0.576c0.173,0.248,0.285,0.5,0.335,0.758
C76.125,159.598,76.123,159.852,76.069,160.098z"/>
<path fill="#FFFFFF" d="M84.016,165.266l-0.522-0.51l-1.025,1.041l-0.783-0.77l-0.467,0.477l0.783,0.768l-2.293,2.33
c-0.202,0.207-0.336,0.4-0.403,0.584c-0.065,0.186-0.09,0.359-0.073,0.518c0.016,0.164,0.066,0.312,0.147,0.441
c0.083,0.137,0.174,0.25,0.275,0.35c0.273,0.268,0.552,0.455,0.835,0.557l0.451-0.506c-0.122-0.035-0.243-0.086-0.361-0.152
c-0.122-0.07-0.228-0.148-0.316-0.234c-0.078-0.078-0.143-0.156-0.191-0.24c-0.046-0.084-0.071-0.172-0.072-0.266
c0-0.094,0.028-0.201,0.088-0.311c0.059-0.115,0.156-0.238,0.291-0.375l2.145-2.182l1.066,1.049l0.467-0.475l-1.067-1.049
L84.016,165.266z"/>
<path fill="#FFFFFF" d="M91.26,172.986c-0.149-0.191-0.33-0.359-0.535-0.5c-0.805-0.553-1.551-0.758-2.237-0.621l0.071,0.68
c0.602-0.078,1.153,0.053,1.653,0.395c0.731,0.5,0.844,1.121,0.339,1.859l-0.076,0.109l-0.301-0.207
c-0.257-0.174-0.546-0.357-0.872-0.543c-0.323-0.188-0.655-0.324-0.994-0.414c-0.339-0.088-0.665-0.094-0.98-0.02
c-0.316,0.074-0.593,0.287-0.831,0.635c-0.143,0.205-0.226,0.414-0.25,0.627c-0.025,0.215-0.005,0.418,0.06,0.619
c0.064,0.199,0.167,0.389,0.307,0.561c0.142,0.17,0.307,0.324,0.496,0.455c0.347,0.236,0.685,0.375,1.011,0.416
c0.325,0.039,0.676-0.023,1.049-0.188l0.018,0.014c-0.08,0.115-0.156,0.236-0.231,0.365c-0.074,0.129-0.139,0.25-0.19,0.365
l0.584,0.402c0.061-0.129,0.146-0.289,0.255-0.479c0.107-0.189,0.219-0.367,0.331-0.531l1.311-1.91
c0.18-0.262,0.291-0.518,0.335-0.768c0.045-0.244,0.039-0.479-0.015-0.701C91.512,173.387,91.411,173.18,91.26,172.986z
M89.923,175.715c-0.13,0.186-0.278,0.348-0.445,0.479c-0.167,0.133-0.347,0.225-0.544,0.271c-0.194,0.051-0.397,0.059-0.609,0.02
c-0.21-0.037-0.426-0.131-0.646-0.281c-0.123-0.084-0.232-0.18-0.332-0.291c-0.1-0.107-0.178-0.227-0.231-0.357
c-0.055-0.133-0.075-0.268-0.064-0.408s0.065-0.279,0.16-0.42c0.146-0.213,0.337-0.328,0.569-0.35
c0.232-0.018,0.474,0.014,0.724,0.102c0.251,0.086,0.494,0.201,0.733,0.342c0.24,0.141,0.436,0.262,0.587,0.369l0.311,0.213
L89.923,175.715z"/>
<path fill="#FFFFFF" d="M99.986,177.719c-0.188-0.02-0.369-0.008-0.536,0.031c-0.167,0.039-0.321,0.096-0.462,0.174
c-0.14,0.08-0.264,0.17-0.368,0.277l-0.021-0.008l0.397-0.879l-0.656-0.297c-0.148,0.346-0.266,0.629-0.354,0.85
c-0.086,0.219-0.178,0.436-0.271,0.643l-1.468,3.254l0.667,0.301l1.204-2.668c0.074-0.162,0.177-0.314,0.313-0.465
c0.136-0.15,0.3-0.275,0.488-0.371c0.191-0.096,0.398-0.152,0.624-0.166c0.228-0.018,0.467,0.033,0.724,0.15
c0.168,0.072,0.288,0.148,0.36,0.221l0.428-0.594c-0.123-0.107-0.278-0.201-0.469-0.287
C100.378,177.793,100.178,177.734,99.986,177.719z"/>
<path fill="#FFFFFF" d="M107.463,184.826l-0.519-4.559l-0.893-0.227l0.765,5.615l-0.612,0.877
c-0.18,0.256-0.361,0.447-0.545,0.568c-0.185,0.119-0.4,0.15-0.651,0.086c-0.207-0.055-0.377-0.137-0.507-0.254l-0.25,0.664
c0.097,0.068,0.201,0.113,0.311,0.15c0.108,0.035,0.216,0.066,0.324,0.094c0.437,0.111,0.802,0.082,1.093-0.088
c0.29-0.168,0.561-0.428,0.809-0.777l4.13-5.695l-0.858-0.221L107.463,184.826z"/>
<path fill="#FFFFFF" d="M127.789,184.484l-0.753-0.121c-0.347-0.055-0.607-0.133-0.787-0.229
c-0.177-0.098-0.276-0.268-0.295-0.512c-0.01-0.139,0.011-0.26,0.065-0.359c0.059-0.098,0.135-0.186,0.233-0.258
c0.098-0.07,0.21-0.125,0.337-0.164s0.252-0.064,0.378-0.074c0.265-0.02,0.494,0.027,0.689,0.137
c0.192,0.111,0.354,0.27,0.48,0.475l0.619-0.482c-0.197-0.322-0.454-0.545-0.772-0.662c-0.321-0.117-0.661-0.16-1.022-0.133
c-0.243,0.02-0.478,0.066-0.7,0.148s-0.423,0.191-0.592,0.328c-0.171,0.139-0.304,0.312-0.393,0.52
c-0.093,0.209-0.128,0.445-0.109,0.709c0.02,0.242,0.087,0.445,0.203,0.6c0.117,0.16,0.249,0.285,0.401,0.377
c0.151,0.094,0.305,0.162,0.461,0.199c0.155,0.039,0.275,0.066,0.367,0.082l0.721,0.113c0.276,0.043,0.514,0.117,0.716,0.217
c0.198,0.098,0.312,0.277,0.331,0.535c0.012,0.146-0.016,0.279-0.076,0.396c-0.062,0.115-0.147,0.211-0.255,0.291
c-0.109,0.078-0.237,0.141-0.382,0.184c-0.144,0.047-0.291,0.074-0.438,0.084c-0.31,0.025-0.582-0.025-0.817-0.148
s-0.436-0.295-0.602-0.52l-0.598,0.479c0.271,0.352,0.584,0.586,0.94,0.713c0.353,0.125,0.728,0.172,1.127,0.139
c0.251-0.018,0.494-0.064,0.733-0.143c0.237-0.078,0.447-0.189,0.625-0.332s0.317-0.322,0.415-0.531
c0.099-0.211,0.138-0.457,0.116-0.738c-0.028-0.369-0.172-0.668-0.431-0.896C128.468,184.68,128.157,184.539,127.789,184.484z"/>
<path fill="#FFFFFF" d="M139.707,184.328c-0.226,0.25-0.527,0.43-0.905,0.531c-0.249,0.068-0.496,0.086-0.734,0.051
c-0.239-0.033-0.462-0.107-0.669-0.223c-0.21-0.117-0.394-0.27-0.553-0.465c-0.16-0.193-0.286-0.412-0.376-0.654l4.17-1.145
l-0.09-0.322c-0.092-0.342-0.235-0.648-0.424-0.922c-0.193-0.273-0.419-0.494-0.684-0.662c-0.265-0.172-0.564-0.279-0.901-0.334
s-0.695-0.027-1.07,0.076c-0.358,0.098-0.67,0.254-0.94,0.469c-0.271,0.217-0.486,0.475-0.651,0.771
c-0.164,0.299-0.264,0.623-0.306,0.98c-0.039,0.355-0.009,0.723,0.097,1.1c0.102,0.379,0.263,0.711,0.484,0.994
c0.221,0.285,0.476,0.514,0.769,0.686c0.293,0.174,0.616,0.281,0.97,0.326c0.351,0.043,0.712,0.016,1.084-0.084
c0.413-0.115,0.779-0.301,1.092-0.566c0.316-0.262,0.573-0.623,0.768-1.084l-0.67-0.299
C140.087,183.82,139.933,184.08,139.707,184.328z M136.312,182.348c0.045-0.221,0.125-0.428,0.245-0.619
c0.119-0.193,0.272-0.365,0.464-0.514c0.188-0.148,0.396-0.254,0.624-0.316c0.514-0.139,0.954-0.1,1.32,0.119
c0.367,0.215,0.614,0.564,0.745,1.039l-3.379,0.93C136.277,182.777,136.27,182.566,136.312,182.348z"/>
<path fill="#FFFFFF" d="M147.598,178.424c-0.025-0.199-0.016-0.406,0.031-0.611c0.049-0.209,0.14-0.402,0.272-0.588
c0.132-0.184,0.327-0.336,0.58-0.455c0.163-0.082,0.3-0.125,0.403-0.135l-0.186-0.713c-0.159,0.029-0.331,0.086-0.516,0.178
c-0.206,0.1-0.38,0.219-0.514,0.352c-0.137,0.135-0.244,0.279-0.321,0.434c-0.078,0.152-0.133,0.307-0.164,0.465
c-0.028,0.158-0.039,0.311-0.022,0.461l-0.021,0.01l-0.42-0.869l-0.648,0.312c0.172,0.336,0.312,0.611,0.427,0.818
c0.11,0.207,0.218,0.416,0.317,0.621l1.551,3.213l0.658-0.316l-1.271-2.635C147.678,178.805,147.625,178.625,147.598,178.424z"/>
<polygon fill="#FFFFFF" points="156.722,170.869 157.928,175.381 157.91,175.395 154.013,172.814 153.309,173.318 
158.047,176.307 158.712,175.828 157.4,170.385 		"/>
<path fill="#FFFFFF" d="M160.954,163.957c-0.147,0.008-0.271,0.059-0.366,0.152c-0.094,0.094-0.144,0.217-0.151,0.365
s0.043,0.277,0.151,0.389s0.24,0.162,0.389,0.154c0.149-0.008,0.27-0.059,0.365-0.152c0.093-0.096,0.145-0.219,0.152-0.365
c0.009-0.148-0.041-0.277-0.152-0.391C161.234,164,161.102,163.949,160.954,163.957z"/>

<rect x="161.612" y="167.37" transform="matrix(-0.7063 -0.708 0.708 -0.7063 161.4302 402.4506)" fill="#FFFFFF" width="5.189" height="0.731"/>
<path fill="#FFFFFF" d="M172.675,159.662c0.082,0.217,0.112,0.453,0.09,0.713c-0.025,0.262-0.121,0.508-0.29,0.74
c-0.169,0.252-0.367,0.445-0.592,0.578c-0.224,0.135-0.461,0.217-0.71,0.248c-0.25,0.031-0.503,0.006-0.764-0.07
c-0.257-0.078-0.508-0.203-0.748-0.377c-0.238-0.172-0.438-0.369-0.591-0.588c-0.156-0.223-0.259-0.455-0.309-0.701
c-0.052-0.244-0.05-0.496,0.009-0.75c0.054-0.258,0.175-0.508,0.358-0.748c0.167-0.234,0.371-0.402,0.611-0.506
c0.241-0.107,0.475-0.154,0.704-0.145l-0.019-0.752c-0.398,0.033-0.75,0.141-1.056,0.32c-0.307,0.178-0.568,0.412-0.78,0.693
c-0.254,0.338-0.423,0.684-0.51,1.043c-0.088,0.354-0.104,0.699-0.045,1.039c0.056,0.336,0.188,0.654,0.386,0.951
c0.198,0.299,0.457,0.562,0.773,0.791c0.319,0.23,0.65,0.391,0.997,0.486s0.688,0.113,1.028,0.062
c0.338-0.053,0.661-0.178,0.971-0.373c0.31-0.193,0.586-0.467,0.825-0.812c0.2-0.293,0.336-0.613,0.411-0.963
c0.074-0.346,0.062-0.713-0.033-1.102L172.675,159.662z"/>
<path fill="#FFFFFF" d="M178.059,149.24c0.154,0.232,0.255,0.518,0.302,0.85c0.049,0.334-0.01,0.68-0.173,1.037
c-0.107,0.234-0.249,0.432-0.428,0.596c-0.183,0.162-0.382,0.285-0.604,0.369c-0.223,0.086-0.457,0.131-0.709,0.129
c-0.254,0-0.498-0.045-0.743-0.133l1.79-3.932l-0.303-0.139c-0.323-0.148-0.65-0.236-0.981-0.266
c-0.333-0.029-0.646,0.004-0.946,0.1s-0.576,0.254-0.835,0.48c-0.255,0.223-0.466,0.514-0.629,0.869
c-0.151,0.338-0.232,0.678-0.239,1.025c-0.005,0.346,0.053,0.674,0.175,0.992c0.125,0.316,0.31,0.605,0.56,0.863
c0.245,0.26,0.548,0.471,0.904,0.631c0.357,0.162,0.714,0.25,1.073,0.264c0.362,0.014,0.7-0.037,1.021-0.152
c0.317-0.113,0.609-0.291,0.869-0.533c0.262-0.246,0.473-0.541,0.629-0.889c0.178-0.393,0.268-0.791,0.268-1.201
c0-0.408-0.113-0.838-0.341-1.283L178.059,149.24z M175.166,151.82c-0.194-0.088-0.362-0.219-0.502-0.393
c-0.141-0.172-0.247-0.367-0.318-0.582c-0.072-0.217-0.106-0.445-0.098-0.686s0.062-0.467,0.159-0.684
c0.22-0.482,0.531-0.797,0.932-0.938c0.401-0.143,0.828-0.111,1.279,0.094L175.166,151.82z"/>
<circle fill="#FFFFFF" cx="182.112" cy="133.305" r="2.434"/>
<path fill="#FFFFFF" d="M61.771,130.871c-1.347,0-2.436,1.09-2.436,2.436c0,1.342,1.089,2.432,2.436,2.432
c1.344,0,2.433-1.09,2.433-2.432C64.204,131.961,63.115,130.871,61.771,130.871z"/>
<path fill="#FFFFFF" d="M123.046,91.613c-0.002,13.036,0.007,26.071-0.02,39.106c0,0.785,0.323,1.107,0.958,1.436
c1.931,0.984,2.862,2.969,2.375,4.895c-0.496,1.965-2.176,3.369-4.118,3.439c-1.945,0.07-3.88-1.293-4.389-3.092
c-0.578-2.049,0.193-4.148,2.125-5.143c0.906-0.463,0.955-1.055,0.955-1.859c-0.009-12.762-0.005-25.521-0.007-38.282
c0-0.431-0.042-0.861-0.074-1.464c-2.598,6.36-5.008,12.513-7.612,18.583c-3.144,7.322-6.824,14.361-11.833,20.615
c-1.358,1.693-2.95,3.199-4.457,4.814c1.044,1.301,2.114,2.553,3.1,3.865c4.8,6.418,10.058,12.562,12.303,20.5
c6.474,0,12.94,0,19.225,0c2.996-9.65,9.719-16.77,15.359-24.381c-12.227-12.36-17.537-28.327-23.771-44.179
C123.098,91.093,123.046,91.354,123.046,91.613z"/>
<path fill="#FFFFFF" d="M121.942,54.459c-38.903,0-70.553,31.649-70.553,70.553c0,38.902,31.65,70.554,70.553,70.554
s70.553-31.652,70.553-70.554C192.495,86.108,160.846,54.459,121.942,54.459z M121.942,195.334
c-38.776,0-70.323-31.545-70.323-70.322c0-38.776,31.546-70.322,70.323-70.322c38.774,0,70.32,31.545,70.32,70.322
C192.263,163.789,160.717,195.334,121.942,195.334z"/>
<path fill="#FFFFFF" d="M171.827,125.012c0-27.506-22.38-49.883-49.885-49.883c-27.506,0-49.883,22.377-49.883,49.883
c0,27.507,22.377,49.882,49.883,49.882C149.447,174.895,171.827,152.52,171.827,125.012z M121.942,174.434
c-27.251,0-49.422-22.17-49.422-49.421c0-27.25,22.171-49.422,49.422-49.422c27.251,0,49.421,22.172,49.421,49.422
C171.363,152.264,149.193,174.434,121.942,174.434z"/>
<path fill="#FFFFFF" d="M121.942,77.438c-26.234,0-47.575,21.341-47.575,47.574c0,26.232,21.341,47.576,47.575,47.576
c26.231,0,47.574-21.344,47.574-47.576C169.517,98.78,148.174,77.438,121.942,77.438z M135.65,168.395
c0.033-0.633-0.198-1.301-0.747-1.852c-0.216-0.219-0.46-0.408-0.766-0.678c1.145-0.801,1.914-1.74,1.336-3.145
c-0.586-1.43-1.854-1.613-3.187-1.623c-0.047,0-0.093,0-0.136,0c-6.766,0-13.532-0.008-20.295,0.01
c-0.63,0-1.291,0.059-1.883,0.254c-1.751,0.57-2.209,2.488-0.96,3.838c0.233,0.25,0.497,0.469,0.787,0.74
c-0.938,0.686-1.608,1.439-1.48,2.484c-18.453-5.805-31.873-23.07-31.873-43.412c0-25.087,20.409-45.496,45.496-45.496
c25.087,0,45.495,20.409,45.495,45.496C167.438,145.322,154.06,162.566,135.65,168.395z"/>
</g>
</g>
</svg>
